<?xml version="1.0" encoding="utf-8"?>
<!-- Generator: Adobe Illustrator 19.0.0, SVG Export Plug-In . SVG Version: 6.00 Build 0)  -->
<svg version="1.1" id="Layer_1" xmlns="http://www.w3.org/2000/svg" xmlns:xlink="http://www.w3.org/1999/xlink" x="0px" y="0px"
	 viewBox="0 0 300 200" style="enable-background:new 0 0 300 200;" xml:space="preserve">
<style type="text/css">
	.st0{fill:#FFFFFF;}
	.st1{opacity:0.5;}
</style>
<g id="XMLID_14_">
	<path id="XMLID_15_" class="st0" d="M90.7,53.2c0,0.5,0,1-0.1,1.8c-0.1,0.7-0.2,1.5-0.3,2.4c-0.2,0.8-0.4,1.7-0.6,2.5
		c-0.2,0.8-0.5,1.6-0.8,2.3c-0.3,0.7-0.7,1.2-1.1,1.7c-0.4,0.4-0.8,0.6-1.2,0.6c-0.7,0-1.6-0.4-2.9-1.2c-1.2-0.8-2.8-1.6-4.8-2.6
		c-2-1-4.4-1.8-7.2-2.6c-2.8-0.8-6.2-1.2-10.1-1.2c-3.9,0-7.4,0.6-10.7,1.7c-3.2,1.1-6.2,2.6-8.9,4.6c-2.7,1.9-5,4.2-7,6.8
		c-2,2.6-3.7,5.4-5.1,8.4c-1.4,3-2.4,6.1-3.1,9.4c-0.7,3.2-1,6.4-1,9.6c0,3.5,0.5,6.6,1.5,9.2c1,2.6,2.5,4.9,4.3,6.6
		c1.9,1.8,4.2,3.1,6.9,4c2.7,0.9,5.7,1.4,9,1.4c2.2,0,4.4-0.2,6.6-0.7c2.2-0.5,4.2-1.1,6.1-2.1l4.1-20.4H47.8c-0.5,0-1-0.2-1.3-0.6
		c-0.3-0.4-0.5-1.1-0.5-2.1c0-0.5,0-1,0.1-1.8c0.1-0.7,0.2-1.5,0.4-2.3c0.2-0.8,0.4-1.6,0.6-2.4c0.2-0.8,0.5-1.5,0.9-2.2
		c0.3-0.6,0.7-1.2,1.1-1.6c0.4-0.4,0.9-0.6,1.4-0.6h29.9c1.5,0,2.6,0.5,3.2,1.5c0.6,1,0.8,2.4,0.4,4.2l-7.1,35.4
		c-0.2,0.9-0.4,1.6-0.7,2.2c-0.3,0.6-0.6,1.2-1.1,1.7c-0.5,0.5-1.7,1.2-3.5,1.9c-1.8,0.8-4,1.5-6.7,2.2c-2.6,0.7-5.6,1.3-8.8,1.8
		c-3.2,0.5-6.5,0.8-9.9,0.8c-6.3,0-11.9-0.7-16.8-2.2c-4.8-1.5-8.9-3.6-12.1-6.5c-3.3-2.9-5.7-6.4-7.4-10.6c-1.7-4.2-2.5-9-2.5-14.5
		c0-4.9,0.5-9.8,1.6-14.5c1.1-4.7,2.7-9.2,4.8-13.5c2.1-4.3,4.7-8.2,7.9-11.8c3.1-3.6,6.7-6.8,10.9-9.4c4.1-2.6,8.7-4.7,13.8-6.2
		c5.1-1.5,10.6-2.2,16.6-2.2c3.3,0,6.5,0.3,9.4,0.8c3,0.5,5.6,1.2,8,1.9c2.3,0.8,4.3,1.6,5.9,2.4c1.6,0.9,2.7,1.5,3.2,2
		c0.5,0.5,0.9,1,1.1,1.6C90.6,51.6,90.7,52.3,90.7,53.2z"/>
	<path id="XMLID_17_" class="st0" d="M112.1,129.9c-0.1,0.5-0.3,0.9-0.7,1.2c-0.4,0.4-0.9,0.7-1.7,0.9c-0.8,0.2-1.7,0.4-2.9,0.5
		c-1.2,0.1-2.6,0.2-4.4,0.2c-1.8,0-3.2-0.1-4.3-0.2c-1.1-0.1-2-0.3-2.6-0.5c-0.6-0.2-1.1-0.5-1.3-0.9c-0.2-0.4-0.3-0.8-0.1-1.2
		l16.8-83.7c0-0.5,0.3-0.9,0.6-1.2c0.4-0.4,1-0.7,1.7-0.9c0.8-0.2,1.7-0.4,2.9-0.5c1.2-0.1,2.6-0.2,4.3-0.2c1.7,0,3.2,0.1,4.3,0.2
		c1.1,0.1,2,0.3,2.7,0.5c0.7,0.2,1.1,0.5,1.3,0.9c0.2,0.4,0.3,0.8,0.2,1.2L112.1,129.9z"/>
	<path id="XMLID_19_" class="st0" d="M234.5,129.9c-0.1,0.5-0.3,0.9-0.6,1.2c-0.3,0.4-0.7,0.7-1.4,0.9c-0.7,0.2-1.6,0.4-2.7,0.5
		c-1.1,0.1-2.6,0.2-4.2,0.2c-1.8,0-3.2-0.1-4.3-0.2c-1.1-0.1-1.9-0.3-2.5-0.5c-0.6-0.2-1-0.5-1.1-0.9c-0.2-0.4-0.2-0.8-0.1-1.2
		l14.4-72h-0.1l-40.1,72c-0.5,1.1-1.6,1.9-3.2,2.3c-1.6,0.4-3.8,0.6-6.7,0.6c-3,0-5.1-0.3-6.4-0.8c-1.3-0.5-2-1.2-2-1.9l-10.4-72.2
		h-0.1l-14.4,72.1c-0.1,0.5-0.3,0.9-0.6,1.2c-0.3,0.4-0.8,0.7-1.4,0.9c-0.7,0.2-1.6,0.4-2.7,0.5c-1.1,0.1-2.5,0.2-4.3,0.2
		c-1.7,0-3.1-0.1-4.2-0.2c-1.1-0.1-1.9-0.3-2.5-0.5c-0.6-0.2-1-0.5-1.2-0.9c-0.2-0.4-0.2-0.8-0.1-1.2L147.1,51
		c0.2-1.1,0.6-2.2,1.1-3.1c0.5-0.9,1.1-1.7,1.8-2.3c0.7-0.6,1.5-1.1,2.4-1.4c0.9-0.3,1.9-0.5,2.9-0.5h11.2c2,0,3.7,0.2,5.1,0.5
		c1.4,0.3,2.6,0.9,3.5,1.7s1.6,1.9,2.1,3.2c0.5,1.3,0.8,2.9,1,4.8l8.5,52.7h0.3L217.5,54c0.9-1.8,1.8-3.3,2.7-4.6
		c0.9-1.3,1.9-2.4,3-3.2c1.1-0.8,2.4-1.5,3.7-1.8c1.4-0.4,3-0.6,4.9-0.6h12.7c1.1,0,2.1,0.2,2.9,0.5c0.8,0.3,1.5,0.8,1.9,1.4
		c0.5,0.6,0.8,1.4,0.9,2.3s0.1,1.9-0.1,3L234.5,129.9z"/>
	<path id="XMLID_21_" class="st0" d="M271.8,129.9c-0.1,0.5-0.3,0.9-0.7,1.2c-0.4,0.4-0.9,0.7-1.7,0.9c-0.8,0.2-1.7,0.4-2.9,0.5
		c-1.2,0.1-2.6,0.2-4.4,0.2c-1.8,0-3.2-0.1-4.3-0.2c-1.1-0.1-2-0.3-2.6-0.5c-0.6-0.2-1.1-0.5-1.3-0.9c-0.2-0.4-0.3-0.8-0.1-1.2
		l16.8-83.7c0-0.5,0.3-0.9,0.6-1.2c0.4-0.4,1-0.7,1.7-0.9c0.8-0.2,1.7-0.4,2.9-0.5c1.2-0.1,2.6-0.2,4.3-0.2c1.7,0,3.2,0.1,4.3,0.2
		c1.1,0.1,2,0.3,2.7,0.5c0.7,0.2,1.1,0.5,1.3,0.9c0.2,0.4,0.3,0.8,0.2,1.2L271.8,129.9z"/>
</g>
<g id="XMLID_3_" class="st1">
	<path id="XMLID_4_" class="st0" d="M179.3,143c0,0.1,0,0.2,0,0.4s0,0.4-0.1,0.6s-0.1,0.5-0.2,0.7s-0.1,0.5-0.2,0.7
		s-0.2,0.4-0.3,0.5s-0.3,0.2-0.4,0.2h-5.7l-3.7,18.3c0,0.1-0.1,0.2-0.2,0.3s-0.2,0.2-0.4,0.2s-0.4,0.1-0.7,0.1s-0.7,0.1-1.1,0.1
		c-0.4,0-0.8,0-1.1-0.1s-0.5-0.1-0.7-0.1s-0.3-0.1-0.3-0.2s-0.1-0.2,0-0.3l3.7-18.3h-5.7c-0.2,0-0.3-0.1-0.4-0.2s-0.1-0.3-0.1-0.5
		c0-0.1,0-0.2,0-0.4s0-0.4,0.1-0.6s0.1-0.5,0.2-0.7s0.1-0.5,0.2-0.7s0.2-0.4,0.3-0.5s0.2-0.2,0.4-0.2h16c0.1,0,0.2,0.1,0.3,0.2
		S179.3,142.8,179.3,143z"/>
	<path id="XMLID_6_" class="st0" d="M195.5,164.4c0,0.1-0.1,0.2-0.2,0.3s-0.2,0.2-0.4,0.2s-0.4,0.1-0.7,0.1s-0.7,0-1.1,0
		s-0.8,0-1.1,0s-0.5-0.1-0.7-0.1s-0.3-0.1-0.3-0.2s-0.1-0.2,0-0.3l1.8-9.2h-8.5l-1.8,9.2c0,0.1-0.1,0.2-0.2,0.3s-0.2,0.2-0.4,0.2
		s-0.4,0.1-0.7,0.1s-0.7,0-1.1,0c-0.5,0-0.8,0-1.1,0s-0.5-0.1-0.7-0.1s-0.3-0.1-0.3-0.2s-0.1-0.2,0-0.3l4.3-21.5
		c0-0.1,0.1-0.2,0.2-0.3s0.2-0.2,0.4-0.2s0.4-0.1,0.7-0.1s0.7,0,1.1,0s0.8,0,1.1,0s0.5,0.1,0.7,0.1s0.3,0.1,0.3,0.2s0.1,0.2,0,0.3
		l-1.7,8.4h8.5l1.7-8.4c0-0.1,0.1-0.2,0.2-0.3s0.2-0.2,0.4-0.2s0.4-0.1,0.7-0.1s0.7,0,1.1,0s0.8,0,1.1,0s0.5,0.1,0.7,0.1
		s0.3,0.1,0.3,0.2s0.1,0.2,0,0.3L195.5,164.4z"/>
	<path id="XMLID_8_" class="st0" d="M218.1,142.9c0,0.1,0,0.2,0,0.4s0,0.4-0.1,0.6s-0.1,0.4-0.1,0.7s-0.1,0.4-0.2,0.6
		s-0.2,0.4-0.3,0.5s-0.3,0.2-0.4,0.2h-8.1l-1.1,5.6h6.9c0.2,0,0.3,0.1,0.4,0.2s0.1,0.3,0.1,0.5c0,0.1,0,0.2,0,0.4s0,0.4-0.1,0.6
		s-0.1,0.4-0.1,0.7s-0.1,0.4-0.2,0.6s-0.2,0.3-0.3,0.5s-0.2,0.2-0.4,0.2H207l-1.3,6.4h8.2c0.1,0,0.2,0.1,0.3,0.2s0.1,0.3,0.1,0.5
		c0,0.1,0,0.2,0,0.4s0,0.4-0.1,0.6s-0.1,0.4-0.1,0.7s-0.1,0.4-0.2,0.6s-0.2,0.3-0.3,0.5s-0.3,0.2-0.4,0.2h-11.4
		c-0.2,0-0.4,0-0.5-0.1s-0.3-0.1-0.4-0.3s-0.2-0.3-0.2-0.5s0-0.4,0-0.7l4-19.8c0.1-0.5,0.3-0.9,0.6-1.1s0.7-0.3,1.1-0.3h11.3
		C217.9,142.3,218.1,142.5,218.1,142.9z"/>
	<path id="XMLID_10_" class="st0" d="M244.6,164.4c0,0.1-0.1,0.2-0.2,0.3s-0.2,0.2-0.4,0.2s-0.4,0.1-0.7,0.1s-0.7,0-1.1,0
		c-0.5,0-0.8,0-1.1,0s-0.5-0.1-0.7-0.1s-0.2-0.1-0.3-0.2s0-0.2,0-0.3l3.7-18.5h0l-10.3,18.5c-0.1,0.3-0.4,0.5-0.8,0.6
		s-1,0.1-1.7,0.1c-0.8,0-1.3-0.1-1.6-0.2s-0.5-0.3-0.5-0.5l-2.7-18.5h0l-3.7,18.5c0,0.1-0.1,0.2-0.1,0.3s-0.2,0.2-0.4,0.2
		s-0.4,0.1-0.7,0.1s-0.7,0-1.1,0s-0.8,0-1.1,0s-0.5-0.1-0.7-0.1s-0.3-0.1-0.3-0.2s-0.1-0.2,0-0.3l4-20.3c0.1-0.3,0.1-0.6,0.3-0.8
		s0.3-0.4,0.5-0.6s0.4-0.3,0.6-0.4s0.5-0.1,0.8-0.1h2.9c0.5,0,1,0,1.3,0.1s0.7,0.2,0.9,0.4s0.4,0.5,0.5,0.8s0.2,0.8,0.3,1.2
		l2.2,13.5h0.1l7.8-13.5c0.2-0.5,0.5-0.9,0.7-1.2s0.5-0.6,0.8-0.8s0.6-0.4,1-0.5s0.8-0.1,1.2-0.1h3.3c0.3,0,0.5,0,0.8,0.1
		s0.4,0.2,0.5,0.4s0.2,0.4,0.2,0.6s0,0.5,0,0.8L244.6,164.4z"/>
	<path id="XMLID_12_" class="st0" d="M267.1,142.9c0,0.1,0,0.2,0,0.4s0,0.4-0.1,0.6s-0.1,0.4-0.1,0.7s-0.1,0.4-0.2,0.6
		s-0.2,0.4-0.3,0.5s-0.3,0.2-0.4,0.2h-8.1l-1.1,5.6h6.9c0.2,0,0.3,0.1,0.4,0.2s0.1,0.3,0.1,0.5c0,0.1,0,0.2,0,0.4s0,0.4-0.1,0.6
		s-0.1,0.4-0.1,0.7s-0.1,0.4-0.2,0.6s-0.2,0.3-0.3,0.5s-0.2,0.2-0.4,0.2H256l-1.3,6.4h8.2c0.1,0,0.2,0.1,0.3,0.2s0.1,0.3,0.1,0.5
		c0,0.1,0,0.2,0,0.4s0,0.4-0.1,0.6s-0.1,0.4-0.1,0.7s-0.1,0.4-0.2,0.6s-0.2,0.3-0.3,0.5s-0.3,0.2-0.4,0.2h-11.4
		c-0.2,0-0.4,0-0.5-0.1s-0.3-0.1-0.4-0.3s-0.2-0.3-0.2-0.5s0-0.4,0-0.7l4-19.8c0.1-0.5,0.3-0.9,0.6-1.1s0.7-0.3,1.1-0.3h11.3
		C267,142.3,267.1,142.5,267.1,142.9z"/>
</g>
</svg>
